
<!-- Generator: Adobe Illustrator 19.0.0, SVG Export Plug-In . SVG Version: 6.00 Build 0)  -->
<svg version="1.1" id="Capa_1" xmlns="http://www.w3.org/2000/svg" xmlns:xlink="http://www.w3.org/1999/xlink" x="0px" y="0px"
	 viewBox="0 0 60 60" style="enable-background:new 0 0 60 60;" xml:space="preserve">
<g>
	<g>
		<rect x="49" y="43" width="2" height="17"/>
		<path d="M5,46V24.1C5,12.1,15.1,2,27,2V0C14,0,3,11,3,24.1V47c0,0.6,0.4,1,1,1h21v12h2V48h4v-2h-5H5z"/>
		<path d="M13,23v8c0,0.6,0.4,1,1,1h4v-2h-3v-7H13z"/>
		<path d="M56,4H26c-0.6,0-1,0.4-1,1v11v9v11c0,0.6,0.4,1,1,1h5v6c0,0.4,0.2,0.7,0.6,0.9C31.7,44,31.9,44,32,44
			c0.2,0,0.5-0.1,0.7-0.2l7.7-6.8H56c0.6,0,1-0.4,1-1V25v-9V5C57,4.4,56.6,4,56,4z M55,6v9H27V6H55z M55,24h-5c-0.6,0-1,0.4-1,1v4.7
			l-6.3-5.5C42.5,24.1,42.2,24,42,24H27v-7h28V24z M40,35.1c-0.3,0-0.5,0-0.7,0.2L33,40.8V36c0-0.6-0.4-1-1-1h-5v-9h14.6l7.7,6.8
			c0.2,0.1,0.5,0.2,0.7,0.2c0.1,0,0.3,0,0.4-0.1c0.4-0.2,0.6-0.5,0.6-0.9v-6h4v9.1H40z"/>
		<rect x="30" y="18" width="2" height="2"/>
		<rect x="34" y="18" width="2" height="2"/>
		<rect x="38" y="18" width="2" height="2"/>
		<rect x="42" y="18" width="2" height="2"/>
		<rect x="46" y="18" width="2" height="2"/>
		<rect x="50" y="18" width="2" height="2"/>
		<rect x="30" y="21" width="2" height="2"/>
		<rect x="34" y="21" width="2" height="2"/>
		<rect x="38" y="21" width="2" height="2"/>
		<rect x="42" y="21" width="2" height="2"/>
		<rect x="46" y="21" width="2" height="2"/>
		<rect x="50" y="21" width="2" height="2"/>
		<rect x="30" y="9" width="12" height="2"/>
		<rect x="35" y="29" width="7" height="2"/>
		<rect x="44" y="9" width="8" height="2"/>
		<rect x="30" y="29" width="3" height="2"/>
	</g>
</g>
<g>
</g>
<g>
</g>
<g>
</g>
<g>
</g>
<g>
</g>
<g>
</g>
<g>
</g>
<g>
</g>
<g>
</g>
<g>
</g>
<g>
</g>
<g>
</g>
<g>
</g>
<g>
</g>
<g>
</g>
</svg>
